<?xml version="1.0" encoding="utf-8"?>
<!-- Generator: Adobe Illustrator 21.1.0, SVG Export Plug-In . SVG Version: 6.00 Build 0)  -->
<svg version="1.1" id="Layer_1" xmlns="http://www.w3.org/2000/svg" xmlns:xlink="http://www.w3.org/1999/xlink" x="0px" y="0px"
	 viewBox="0 0 1260 875.5" style="enable-background:new 0 0 1260 875.5;" xml:space="preserve">
<style type="text/css">
	.st0{fill:#0FADB6;}
</style>
<title>innonic</title>
<g>
	<g>
		<path class="st0" d="M630,525.7c-15.9,0-31.6-4.1-45.4-12.1L454,438.1c-28.1-16.3-45.4-46.2-45.4-78.7V208.6
			c0-32.4,17.4-62.4,45.4-78.7l130.6-75.4c28.1-16.2,62.7-16.2,90.8,0L806,129.9c28.1,16.3,45.4,46.2,45.4,78.7v150.8
			c0,32.4-17.4,62.4-45.4,78.7l-130.6,75.4C661.6,521.5,646,525.7,630,525.7z M630,81.9c-9,0-17.9,2.4-25.7,6.9l-130.6,75.3
			c-15.9,9.2-25.6,26.1-25.7,44.4v150.8c0,18.3,9.8,35.3,25.7,44.4l130.7,75.4c15.9,9.1,35.4,9.1,51.3,0l130.5-75.4
			c15.9-9.2,25.6-26.1,25.7-44.4V208.6c0-18.3-9.8-35.3-25.7-44.4L655.7,88.7C647.9,84.2,639,81.9,630,81.9L630,81.9z"/>
		<path class="st0" d="M708.7,220.8l-63.1-36.5c-9.6-5.5-21.4-5.5-31,0l-63.1,36.5c-9.6,5.5-15.5,15.8-15.4,26.8v73
			c0,11.1,5.9,21.3,15.4,26.8l63.1,36.4c9.6,5.5,21.4,5.5,31,0l63.1-36.5c9.6-5.5,15.5-15.8,15.4-26.8v-73
			C724.1,236.5,718.2,226.3,708.7,220.8z"/>
	</g>
	<g>
		<g>
			<path class="st0" d="M303.6,651.9V831h-23c-2.9,0.1-5.9-0.5-8.6-1.6c-2.7-1.4-5-3.3-6.9-5.7l-89.9-113.8c0.4,3.4,0.6,6.7,0.7,9.8
				c0.1,3.1,0.2,6.1,0.2,8.9V831h-39V640.3h23.3c1.6,0,3.3,0.1,4.9,0.3c1.2,0.2,2.4,0.5,3.5,1c1.1,0.5,2.1,1.2,3,2
				c1.2,1.1,2.2,2.3,3.3,3.5l90.7,114.6c-0.4-3.7-0.7-7.2-0.9-10.7c-0.2-3.4-0.3-6.7-0.3-9.8v-101H292
				C298.4,640.3,303.6,645.5,303.6,651.9C303.6,651.9,303.6,651.9,303.6,651.9z"/>
			<path class="st0" d="M501.7,651.9V831h-23c-2.9,0.1-5.9-0.5-8.6-1.6c-2.7-1.4-5-3.3-6.9-5.7l-89.9-113.8c0.4,3.4,0.6,6.7,0.7,9.8
				c0.1,3.1,0.2,6.1,0.2,8.9V831h-39V640.3h23.3c1.6,0,3.3,0.1,4.9,0.3c1.2,0.2,2.4,0.5,3.5,1c1.1,0.5,2.1,1.2,3,2
				c1.2,1.1,2.2,2.3,3.3,3.5l90.7,114.6c-0.4-3.7-0.7-7.2-0.9-10.7c-0.2-3.4-0.3-6.7-0.3-9.8v-101h27.5
				C496.6,640.3,501.7,645.5,501.7,651.9C501.7,651.9,501.7,651.9,501.7,651.9z"/>
			<path class="st0" d="M105.5,831H76.6C68,831,61,824,61,815.4V640.3h32.1c6.9,0,12.5,5.6,12.5,12.5V831z"/>
		</g>
		<g>
			<path class="st0" d="M731.2,735.6c0.1,13.2-2.3,26.2-7.1,38.5c-9.2,23.6-27.8,42.3-51.3,51.6c-12.2,5-25.7,7.5-40.6,7.5
				c-14.9,0-28.4-2.5-40.6-7.5c-23.6-9.3-42.2-28-51.5-51.6c-9.5-24.8-9.5-52.2,0-77c4.5-11.6,11.4-22.1,20.1-30.9
				c9-8.9,19.7-15.9,31.4-20.5c12.2-5,25.7-7.5,40.6-7.5c14.8,0,28.3,2.5,40.6,7.5c11.7,4.7,22.3,11.8,31.2,20.7
				c8.7,8.8,15.5,19.3,20.1,30.9C728.9,709.5,731.3,722.5,731.2,735.6z M686,735.6c0.1-8.6-1.1-17.2-3.7-25.5
				c-2.2-7-5.8-13.6-10.6-19.1c-4.6-5.2-10.4-9.3-16.8-12c-7.2-2.9-14.9-4.3-22.7-4.2c-7.8-0.1-15.6,1.3-22.9,4.2
				c-6.5,2.6-12.3,6.8-16.9,12c-4.8,5.6-8.4,12.1-10.6,19.1c-4.9,16.7-4.9,34.4,0,51c2.2,7,5.8,13.6,10.6,19.1
				c4.6,5.3,10.4,9.4,16.9,12c7.3,2.9,15,4.3,22.9,4.2c7.8,0.1,15.5-1.3,22.7-4.2c6.5-2.6,12.2-6.8,16.8-12
				c4.8-5.6,8.4-12.1,10.6-19.1C684.9,752.9,686.1,744.2,686,735.6z"/>
			<path class="st0" d="M929,651.9V831h-23c-2.9,0.1-5.9-0.5-8.6-1.6c-2.7-1.4-5-3.3-6.9-5.7l-89.9-113.8c0.4,3.4,0.6,6.7,0.7,9.8
				c0.1,3.1,0.2,6.1,0.2,8.9V831h-39V640.3h23.3c1.6,0,3.3,0.1,4.9,0.3c1.2,0.2,2.4,0.5,3.5,1c1.1,0.5,2.1,1.2,3,2
				c1.2,1.1,2.2,2.3,3.3,3.5l90.8,114.6c-0.4-3.7-0.7-7.2-0.9-10.7c-0.2-3.4-0.3-6.7-0.3-9.8v-101h27.5
				C924,640.3,929.1,645.6,929,651.9C929,651.9,929,651.9,929,651.9z"/>
			<path class="st0" d="M1175.3,781.6c1.1,0,2.2,0.2,3.2,0.6c1.1,0.4,2.1,1.1,3,2l17.5,18.4c-7.5,9.9-17.5,17.7-28.9,22.7
				c-11.6,5.1-25.2,7.7-41,7.7c-14.5,0-27.5-2.5-38.9-7.4c-11.1-4.6-21-11.6-29.2-20.4c-8.2-8.9-14.4-19.5-18.4-30.9
				c-4.4-12.5-6.5-25.6-6.4-38.8c-0.1-13.4,2.2-26.7,7-39.2c4.4-11.4,11-21.9,19.5-30.7c8.5-8.7,18.8-15.6,30.1-20.1
				c12.3-4.9,25.4-7.4,38.7-7.2c6.8,0,13.6,0.6,20.2,1.9c6.1,1.2,12,2.9,17.7,5.2c5.3,2.1,10.4,4.8,15.2,8c4.4,3,8.5,6.4,12.3,10.2
				l-14.9,20.1c-1,1.3-2.2,2.4-3.4,3.3c-1.6,1.1-3.6,1.6-5.5,1.5c-1.5,0-3.1-0.4-4.4-1.1c-1.5-0.8-3-1.6-4.4-2.5l-5.1-3.3
				c-2.1-1.3-4.4-2.4-6.7-3.3c-2.9-1.1-6-1.9-9-2.5c-4-0.8-8-1.1-12.1-1.1c-6.9-0.1-13.7,1.3-20.1,4.1c-6.1,2.7-11.4,6.7-15.7,11.8
				c-4.6,5.6-8.1,12.1-10.2,19.1c-2.5,8.4-3.7,17.1-3.6,25.8c-0.1,8.8,1.2,17.6,4,26c2.3,7,6,13.5,10.8,19.1
				c4.4,5.1,9.9,9.1,16.1,11.8c6.2,2.7,12.9,4.1,19.6,4.1c3.7,0,7.4-0.2,11-0.6c3.2-0.4,6.3-1,9.3-2c2.8-0.9,5.6-2.2,8.1-3.7
				c2.8-1.7,5.4-3.6,7.8-5.8c1-0.9,2.2-1.6,3.4-2.2C1172.8,781.9,1174.1,781.6,1175.3,781.6z"/>
			<path class="st0" d="M1005,831.5h-28.9c-8.6,0-15.6-7-15.6-15.6v-175h32.1c6.9,0,12.5,5.6,12.5,12.5c0,0,0,0,0,0V831.5z"/>
		</g>
	</g>
</g>
</svg>
